<svg width="142" height="145" viewBox="0 0 142 145" fill="none" xmlns="http://www.w3.org/2000/svg">
<rect width="142" height="144.136" fill="black" fill-opacity="0"/>
<rect width="142" height="144.136" fill="black" fill-opacity="0"/>
<rect width="142" height="144.136" fill="black" fill-opacity="0"/>
<rect width="142" height="144.136" fill="black" fill-opacity="0"/>
<path d="M142 0H0V144.136H142V0Z" fill="#FA4616"/>
<path d="M15.8492 56.3413H18.5093V77.2812H24.4163V79.8205H15.8492V56.3413Z" fill="white"/>
<path d="M42.4072 79.8205H39.8371V56.3413H42.4072L42.373 71.0332L47.2262 65.8721H50.1176L44.1207 72.3419L50.9744 79.79L47.9245 79.8205L42.4072 73.755V79.8205Z" fill="white"/>
<path d="M88.2413 79.8422V69.1331H86.061V66.733H88.2413L88.2756 61.5763H90.8457L90.8114 66.733H92.9532V69.1331H90.8114V79.8248L88.2413 79.8422Z" fill="white"/>
<path d="M110.516 79.8378V56.3586H113.086V79.8378H110.516Z" fill="white"/>
<path d="M100.792 78.5422L94.9151 66.733H97.6651L101.979 75.8638L106.361 66.733H108.965L100.017 85.6555H97.4124L100.792 78.5422Z" fill="white"/>
<path d="M37.6953 72.7115V73.1463H27.1235C27.1492 76.0899 28.807 77.8291 31.3985 77.8291C34.3028 77.8291 35.6821 75.1029 35.6821 75.1029L37.267 76.2769C36.6758 77.3721 35.7973 78.2797 34.7289 78.8991C33.6605 79.5184 32.444 79.8253 31.2143 79.7857C27.4576 79.7857 24.8361 77.003 24.8361 72.8941C24.8361 68.707 27.5047 65.8765 31.3728 65.8765C35.3651 65.8678 37.8196 68.8983 37.6953 72.7115ZM27.2606 71.3854H35.3993C35.3222 69.4288 33.5703 67.8026 31.21 67.8026C28.8498 67.8026 27.6161 69.3766 27.2563 71.381L27.2606 71.3854Z" fill="white"/>
<path d="M127.65 72.7115V73.1463H117.07C117.095 76.0986 118.753 77.8595 121.353 77.8595C124.257 77.8595 125.637 75.1333 125.637 75.1333L127.247 76.2942C126.655 77.3905 125.775 78.2987 124.705 78.9181C123.635 79.5375 122.417 79.8438 121.186 79.8031C117.425 79.8031 114.804 77.0204 114.804 72.9115C114.804 68.7244 117.472 65.8938 121.349 65.8938C125.316 65.8678 127.77 68.8983 127.65 72.7115ZM117.211 71.3854H125.35C125.273 69.4288 123.516 67.8026 121.156 67.8026C118.796 67.8026 117.558 69.3766 117.207 71.381L117.211 71.3854Z" fill="white"/>
<path d="M65.1101 72.6506C65.1101 76.7768 62.2444 79.7857 58.3892 79.7857C54.6068 79.7857 51.8311 76.9073 51.8311 72.881C51.8311 68.7287 54.6968 65.8721 58.5991 65.8721C62.3429 65.8721 65.1101 68.5983 65.1101 72.6506ZM54.1185 72.6767C54.1185 75.7811 56.0847 77.8073 58.582 77.8073C61.0793 77.8073 62.7841 75.8551 62.7841 72.9028C62.7841 69.7505 60.848 67.7982 58.3207 67.7982C55.7934 67.7982 54.1099 69.6766 54.1099 72.6767H54.1185Z" fill="white"/>
<path d="M72.3922 62.8285C72.3922 59.7153 74.7781 57.2283 78.5562 57.2283C80.8051 57.2283 82.7241 58.3979 84.0777 60.3066L82.3257 61.685C81.2806 60.5458 80.4067 59.9066 78.6847 59.8371C76.7614 59.7588 74.9537 60.6284 74.9623 62.8285C74.9623 67.2808 85.2429 64.8981 85.2429 73.1289C85.2429 76.6725 81.9574 79.8378 78.3592 79.8378C75.0608 79.8378 72.5849 77.7943 71.5355 74.3898L73.93 73.5202C74.9837 76.4508 77.057 77.2377 78.3592 77.2377C80.4238 77.2377 82.6684 75.5812 82.6727 73.3811C82.7798 66.9373 72.3922 69.9592 72.3922 62.8285Z" fill="white"/>
</svg>
