<svg width="362" height="362" viewBox="0 0 362 362" fill="none" xmlns="http://www.w3.org/2000/svg">
<path d="M181.006 181.047L93.2837 22.6912C121.278 7.24187 149.03 0 181.006 0V181.047Z" fill="#FA5C32" fill-opacity="0.2"/>
<path d="M181.006 181.047L0.252441 171.511C3.63101 107.662 37.296 53.7103 93.2838 22.6909L181.006 181.047Z" fill="#FA5C32" fill-opacity="0.4"/>
<path d="M181.005 181.047L158.924 360.766C63.7208 349.059 -4.69517 267.467 0.252022 171.512L181.005 181.047Z" fill="#FA5C32" fill-opacity="0.6"/>
<path d="M181.006 181.047L359.225 212.428C342.574 306.935 254.128 372.353 158.924 360.645L181.006 181.047Z" fill="#FA5C32" fill-opacity="0.8"/>
<path d="M181.005 181.047V0C280.914 0 362 81.109 362 181.047C362 192.996 361.276 200.721 359.225 212.428L181.005 181.047Z" fill="#FA5C32"/>
<ellipse cx="180.192" cy="180.192" rx="103.429" ry="103.429" fill="white"/>
<path d="M292.448 106H284.063V104.831L288.493 99.9092C289.149 99.165 289.601 98.5615 289.847 98.0986C290.099 97.6299 290.225 97.1465 290.225 96.6484C290.225 95.9805 290.022 95.4326 289.618 95.0049C289.214 94.5771 288.675 94.3633 288.001 94.3633C287.192 94.3633 286.562 94.5947 286.111 95.0576C285.666 95.5146 285.443 96.1533 285.443 96.9736H283.817C283.817 95.7959 284.195 94.8438 284.951 94.1172C285.713 93.3906 286.729 93.0273 288.001 93.0273C289.19 93.0273 290.131 93.3408 290.822 93.9678C291.514 94.5889 291.859 95.418 291.859 96.4551C291.859 97.7148 291.057 99.2148 289.451 100.955L286.023 104.673H292.448V106ZM301.932 96.543C301.932 97.1816 301.762 97.75 301.422 98.248C301.088 98.7461 300.634 99.1357 300.06 99.417C300.728 99.7041 301.255 100.123 301.642 100.674C302.034 101.225 302.23 101.849 302.23 102.546C302.23 103.653 301.855 104.535 301.105 105.191C300.361 105.848 299.38 106.176 298.161 106.176C296.931 106.176 295.943 105.848 295.199 105.191C294.461 104.529 294.092 103.647 294.092 102.546C294.092 101.854 294.279 101.23 294.654 100.674C295.035 100.117 295.56 99.6953 296.228 99.4082C295.659 99.127 295.211 98.7373 294.883 98.2393C294.555 97.7412 294.391 97.1758 294.391 96.543C294.391 95.4648 294.736 94.6094 295.428 93.9766C296.119 93.3438 297.03 93.0273 298.161 93.0273C299.286 93.0273 300.194 93.3438 300.886 93.9766C301.583 94.6094 301.932 95.4648 301.932 96.543ZM300.604 102.511C300.604 101.796 300.376 101.213 299.919 100.762C299.468 100.311 298.876 100.085 298.144 100.085C297.411 100.085 296.822 100.308 296.377 100.753C295.938 101.198 295.718 101.784 295.718 102.511C295.718 103.237 295.932 103.809 296.359 104.225C296.793 104.641 297.394 104.849 298.161 104.849C298.923 104.849 299.521 104.641 299.954 104.225C300.388 103.803 300.604 103.231 300.604 102.511ZM298.161 94.3633C297.522 94.3633 297.004 94.5625 296.605 94.9609C296.213 95.3535 296.017 95.8896 296.017 96.5693C296.017 97.2197 296.21 97.7471 296.597 98.1514C296.989 98.5498 297.511 98.749 298.161 98.749C298.812 98.749 299.33 98.5498 299.717 98.1514C300.109 97.7471 300.306 97.2197 300.306 96.5693C300.306 95.9189 300.104 95.3887 299.699 94.9785C299.295 94.5684 298.782 94.3633 298.161 94.3633ZM304.138 95.6641C304.138 94.8965 304.381 94.2637 304.867 93.7656C305.359 93.2676 305.989 93.0186 306.757 93.0186C307.536 93.0186 308.166 93.2705 308.646 93.7744C309.133 94.2725 309.376 94.9199 309.376 95.7168V96.3408C309.376 97.1143 309.13 97.7471 308.638 98.2393C308.151 98.7256 307.53 98.9688 306.774 98.9688C306.013 98.9688 305.383 98.7256 304.885 98.2393C304.387 97.7471 304.138 97.0938 304.138 96.2793V95.6641ZM305.351 96.3408C305.351 96.7979 305.479 97.1758 305.737 97.4746C305.995 97.7676 306.341 97.9141 306.774 97.9141C307.19 97.9141 307.524 97.7705 307.776 97.4834C308.034 97.1963 308.163 96.8037 308.163 96.3057V95.6641C308.163 95.207 308.037 94.8291 307.785 94.5303C307.533 94.2314 307.19 94.082 306.757 94.082C306.323 94.082 305.98 94.2314 305.729 94.5303C305.477 94.8291 305.351 95.2188 305.351 95.6992V96.3408ZM310.369 102.862C310.369 102.095 310.612 101.465 311.099 100.973C311.591 100.475 312.221 100.226 312.988 100.226C313.756 100.226 314.386 100.472 314.878 100.964C315.37 101.456 315.616 102.109 315.616 102.924V103.548C315.616 104.315 315.37 104.948 314.878 105.446C314.392 105.938 313.768 106.185 313.006 106.185C312.244 106.185 311.614 105.941 311.116 105.455C310.618 104.963 310.369 104.31 310.369 103.495V102.862ZM311.582 103.548C311.582 104.011 311.711 104.392 311.969 104.69C312.227 104.983 312.572 105.13 313.006 105.13C313.428 105.13 313.765 104.986 314.017 104.699C314.269 104.406 314.395 104.011 314.395 103.513V102.862C314.395 102.399 314.266 102.021 314.008 101.729C313.756 101.436 313.416 101.289 312.988 101.289C312.572 101.289 312.232 101.436 311.969 101.729C311.711 102.016 311.582 102.405 311.582 102.897V103.548ZM307.144 105.033L306.221 104.453L312.47 94.4512L313.393 95.0312L307.144 105.033Z" fill="white"/>
<path d="M261.448 294H253.063V292.831L257.493 287.909C258.149 287.165 258.601 286.562 258.847 286.099C259.099 285.63 259.225 285.146 259.225 284.648C259.225 283.98 259.022 283.433 258.618 283.005C258.214 282.577 257.675 282.363 257.001 282.363C256.192 282.363 255.562 282.595 255.111 283.058C254.666 283.515 254.443 284.153 254.443 284.974H252.817C252.817 283.796 253.195 282.844 253.951 282.117C254.713 281.391 255.729 281.027 257.001 281.027C258.19 281.027 259.131 281.341 259.822 281.968C260.514 282.589 260.859 283.418 260.859 284.455C260.859 285.715 260.057 287.215 258.451 288.955L255.023 292.673H261.448V294ZM270.035 289.702H271.811V291.029H270.035V294H268.4V291.029H262.573V290.071L268.304 281.203H270.035V289.702ZM264.419 289.702H268.4V283.427L268.207 283.778L264.419 289.702ZM273.138 283.664C273.138 282.896 273.381 282.264 273.867 281.766C274.359 281.268 274.989 281.019 275.757 281.019C276.536 281.019 277.166 281.271 277.646 281.774C278.133 282.272 278.376 282.92 278.376 283.717V284.341C278.376 285.114 278.13 285.747 277.638 286.239C277.151 286.726 276.53 286.969 275.774 286.969C275.013 286.969 274.383 286.726 273.885 286.239C273.387 285.747 273.138 285.094 273.138 284.279V283.664ZM274.351 284.341C274.351 284.798 274.479 285.176 274.737 285.475C274.995 285.768 275.341 285.914 275.774 285.914C276.19 285.914 276.524 285.771 276.776 285.483C277.034 285.196 277.163 284.804 277.163 284.306V283.664C277.163 283.207 277.037 282.829 276.785 282.53C276.533 282.231 276.19 282.082 275.757 282.082C275.323 282.082 274.98 282.231 274.729 282.53C274.477 282.829 274.351 283.219 274.351 283.699V284.341ZM279.369 290.862C279.369 290.095 279.612 289.465 280.099 288.973C280.591 288.475 281.221 288.226 281.988 288.226C282.756 288.226 283.386 288.472 283.878 288.964C284.37 289.456 284.616 290.109 284.616 290.924V291.548C284.616 292.315 284.37 292.948 283.878 293.446C283.392 293.938 282.768 294.185 282.006 294.185C281.244 294.185 280.614 293.941 280.116 293.455C279.618 292.963 279.369 292.31 279.369 291.495V290.862ZM280.582 291.548C280.582 292.011 280.711 292.392 280.969 292.69C281.227 292.983 281.572 293.13 282.006 293.13C282.428 293.13 282.765 292.986 283.017 292.699C283.269 292.406 283.395 292.011 283.395 291.513V290.862C283.395 290.399 283.266 290.021 283.008 289.729C282.756 289.436 282.416 289.289 281.988 289.289C281.572 289.289 281.232 289.436 280.969 289.729C280.711 290.016 280.582 290.405 280.582 290.897V291.548ZM276.144 293.033L275.221 292.453L281.47 282.451L282.393 283.031L276.144 293.033Z" fill="white"/>
<path d="M69.4482 277H61.0635V275.831L65.4932 270.909C66.1494 270.165 66.6006 269.562 66.8467 269.099C67.0986 268.63 67.2246 268.146 67.2246 267.648C67.2246 266.98 67.0225 266.433 66.6182 266.005C66.2139 265.577 65.6748 265.363 65.001 265.363C64.1924 265.363 63.5625 265.595 63.1113 266.058C62.666 266.515 62.4434 267.153 62.4434 267.974H60.8174C60.8174 266.796 61.1953 265.844 61.9512 265.117C62.7129 264.391 63.7295 264.027 65.001 264.027C66.1904 264.027 67.1309 264.341 67.8223 264.968C68.5137 265.589 68.8594 266.418 68.8594 267.455C68.8594 268.715 68.0566 270.215 66.4512 271.955L63.0234 275.673H69.4482V277ZM78.0352 272.702H79.8105V274.029H78.0352V277H76.4004V274.029H70.5732V273.071L76.3037 264.203H78.0352V272.702ZM72.4189 272.702H76.4004V266.427L76.207 266.778L72.4189 272.702ZM81.1377 266.664C81.1377 265.896 81.3809 265.264 81.8672 264.766C82.3594 264.268 82.9893 264.019 83.7568 264.019C84.5361 264.019 85.166 264.271 85.6465 264.774C86.1328 265.272 86.376 265.92 86.376 266.717V267.341C86.376 268.114 86.1299 268.747 85.6377 269.239C85.1514 269.726 84.5303 269.969 83.7744 269.969C83.0127 269.969 82.3828 269.726 81.8848 269.239C81.3867 268.747 81.1377 268.094 81.1377 267.279V266.664ZM82.3506 267.341C82.3506 267.798 82.4795 268.176 82.7373 268.475C82.9951 268.768 83.3408 268.914 83.7744 268.914C84.1904 268.914 84.5244 268.771 84.7764 268.483C85.0342 268.196 85.1631 267.804 85.1631 267.306V266.664C85.1631 266.207 85.0371 265.829 84.7852 265.53C84.5332 265.231 84.1904 265.082 83.7568 265.082C83.3232 265.082 82.9805 265.231 82.7285 265.53C82.4766 265.829 82.3506 266.219 82.3506 266.699V267.341ZM87.3691 273.862C87.3691 273.095 87.6123 272.465 88.0986 271.973C88.5908 271.475 89.2207 271.226 89.9883 271.226C90.7559 271.226 91.3857 271.472 91.8779 271.964C92.3701 272.456 92.6162 273.109 92.6162 273.924V274.548C92.6162 275.315 92.3701 275.948 91.8779 276.446C91.3916 276.938 90.7676 277.185 90.0059 277.185C89.2441 277.185 88.6143 276.941 88.1162 276.455C87.6182 275.963 87.3691 275.31 87.3691 274.495V273.862ZM88.582 274.548C88.582 275.011 88.7109 275.392 88.9688 275.69C89.2266 275.983 89.5723 276.13 90.0059 276.13C90.4277 276.13 90.7646 275.986 91.0166 275.699C91.2686 275.406 91.3945 275.011 91.3945 274.513V273.862C91.3945 273.399 91.2656 273.021 91.0078 272.729C90.7559 272.436 90.416 272.289 89.9883 272.289C89.5723 272.289 89.2324 272.436 88.9688 272.729C88.7109 273.016 88.582 273.405 88.582 273.897V274.548ZM84.1436 276.033L83.2207 275.453L89.4697 265.451L90.3926 266.031L84.1436 276.033Z" fill="white"/>
<path d="M50.4072 116H48.7725V105.163L45.4941 106.367V104.891L50.1523 103.142H50.4072V116ZM61.5518 103.194V104.574H61.2529C59.9873 104.598 58.9795 104.973 58.2295 105.699C57.4795 106.426 57.0459 107.448 56.9287 108.767C57.6025 107.993 58.5225 107.606 59.6885 107.606C60.8018 107.606 61.6895 107.999 62.3516 108.784C63.0195 109.569 63.3535 110.583 63.3535 111.825C63.3535 113.144 62.9932 114.198 62.2725 114.989C61.5576 115.78 60.5967 116.176 59.3896 116.176C58.165 116.176 57.1719 115.707 56.4102 114.77C55.6484 113.826 55.2676 112.613 55.2676 111.131V110.507C55.2676 108.151 55.7686 106.353 56.7705 105.11C57.7783 103.862 59.2754 103.224 61.2617 103.194H61.5518ZM59.416 108.96C58.8594 108.96 58.3467 109.127 57.8779 109.461C57.4092 109.795 57.084 110.214 56.9023 110.718V111.315C56.9023 112.37 57.1396 113.22 57.6143 113.864C58.0889 114.509 58.6807 114.831 59.3896 114.831C60.1221 114.831 60.6963 114.562 61.1123 114.022C61.5342 113.483 61.7451 112.777 61.7451 111.904C61.7451 111.025 61.5312 110.316 61.1035 109.777C60.6816 109.232 60.1191 108.96 59.416 108.96ZM65.1377 105.664C65.1377 104.896 65.3809 104.264 65.8672 103.766C66.3594 103.268 66.9893 103.019 67.7568 103.019C68.5361 103.019 69.166 103.271 69.6465 103.774C70.1328 104.272 70.376 104.92 70.376 105.717V106.341C70.376 107.114 70.1299 107.747 69.6377 108.239C69.1514 108.726 68.5303 108.969 67.7744 108.969C67.0127 108.969 66.3828 108.726 65.8848 108.239C65.3867 107.747 65.1377 107.094 65.1377 106.279V105.664ZM66.3506 106.341C66.3506 106.798 66.4795 107.176 66.7373 107.475C66.9951 107.768 67.3408 107.914 67.7744 107.914C68.1904 107.914 68.5244 107.771 68.7764 107.483C69.0342 107.196 69.1631 106.804 69.1631 106.306V105.664C69.1631 105.207 69.0371 104.829 68.7852 104.53C68.5332 104.231 68.1904 104.082 67.7568 104.082C67.3232 104.082 66.9805 104.231 66.7285 104.53C66.4766 104.829 66.3506 105.219 66.3506 105.699V106.341ZM71.3691 112.862C71.3691 112.095 71.6123 111.465 72.0986 110.973C72.5908 110.475 73.2207 110.226 73.9883 110.226C74.7559 110.226 75.3857 110.472 75.8779 110.964C76.3701 111.456 76.6162 112.109 76.6162 112.924V113.548C76.6162 114.315 76.3701 114.948 75.8779 115.446C75.3916 115.938 74.7676 116.185 74.0059 116.185C73.2441 116.185 72.6143 115.941 72.1162 115.455C71.6182 114.963 71.3691 114.31 71.3691 113.495V112.862ZM72.582 113.548C72.582 114.011 72.7109 114.392 72.9688 114.69C73.2266 114.983 73.5723 115.13 74.0059 115.13C74.4277 115.13 74.7646 114.986 75.0166 114.699C75.2686 114.406 75.3945 114.011 75.3945 113.513V112.862C75.3945 112.399 75.2656 112.021 75.0078 111.729C74.7559 111.436 74.416 111.289 73.9883 111.289C73.5723 111.289 73.2324 111.436 72.9688 111.729C72.7109 112.016 72.582 112.405 72.582 112.897V113.548ZM68.1436 115.033L67.2207 114.453L73.4697 104.451L74.3926 105.031L68.1436 115.033Z" fill="#FA5C32"/>
<path d="M147.824 43.543C147.824 44.1816 147.654 44.75 147.314 45.248C146.98 45.7461 146.526 46.1357 145.952 46.417C146.62 46.7041 147.147 47.123 147.534 47.6738C147.927 48.2246 148.123 48.8486 148.123 49.5459C148.123 50.6533 147.748 51.5352 146.998 52.1914C146.254 52.8477 145.272 53.1758 144.054 53.1758C142.823 53.1758 141.836 52.8477 141.092 52.1914C140.354 51.5293 139.984 50.6475 139.984 49.5459C139.984 48.8545 140.172 48.2305 140.547 47.6738C140.928 47.1172 141.452 46.6953 142.12 46.4082C141.552 46.127 141.104 45.7373 140.775 45.2393C140.447 44.7412 140.283 44.1758 140.283 43.543C140.283 42.4648 140.629 41.6094 141.32 40.9766C142.012 40.3438 142.923 40.0273 144.054 40.0273C145.179 40.0273 146.087 40.3438 146.778 40.9766C147.476 41.6094 147.824 42.4648 147.824 43.543ZM146.497 49.5107C146.497 48.7959 146.269 48.2129 145.812 47.7617C145.36 47.3105 144.769 47.085 144.036 47.085C143.304 47.085 142.715 47.3076 142.27 47.7529C141.83 48.1982 141.61 48.7842 141.61 49.5107C141.61 50.2373 141.824 50.8086 142.252 51.2246C142.686 51.6406 143.286 51.8486 144.054 51.8486C144.815 51.8486 145.413 51.6406 145.847 51.2246C146.28 50.8027 146.497 50.2314 146.497 49.5107ZM144.054 41.3633C143.415 41.3633 142.896 41.5625 142.498 41.9609C142.105 42.3535 141.909 42.8896 141.909 43.5693C141.909 44.2197 142.103 44.7471 142.489 45.1514C142.882 45.5498 143.403 45.749 144.054 45.749C144.704 45.749 145.223 45.5498 145.609 45.1514C146.002 44.7471 146.198 44.2197 146.198 43.5693C146.198 42.9189 145.996 42.3887 145.592 41.9785C145.188 41.5684 144.675 41.3633 144.054 41.3633ZM150.03 42.6641C150.03 41.8965 150.273 41.2637 150.76 40.7656C151.252 40.2676 151.882 40.0186 152.649 40.0186C153.429 40.0186 154.059 40.2705 154.539 40.7744C155.025 41.2725 155.269 41.9199 155.269 42.7168V43.3408C155.269 44.1143 155.022 44.7471 154.53 45.2393C154.044 45.7256 153.423 45.9688 152.667 45.9688C151.905 45.9688 151.275 45.7256 150.777 45.2393C150.279 44.7471 150.03 44.0938 150.03 43.2793V42.6641ZM151.243 43.3408C151.243 43.7979 151.372 44.1758 151.63 44.4746C151.888 44.7676 152.233 44.9141 152.667 44.9141C153.083 44.9141 153.417 44.7705 153.669 44.4834C153.927 44.1963 154.056 43.8037 154.056 43.3057V42.6641C154.056 42.207 153.93 41.8291 153.678 41.5303C153.426 41.2314 153.083 41.082 152.649 41.082C152.216 41.082 151.873 41.2314 151.621 41.5303C151.369 41.8291 151.243 42.2188 151.243 42.6992V43.3408ZM156.262 49.8623C156.262 49.0947 156.505 48.4648 156.991 47.9727C157.483 47.4746 158.113 47.2256 158.881 47.2256C159.648 47.2256 160.278 47.4717 160.771 47.9639C161.263 48.4561 161.509 49.1094 161.509 49.9238V50.5479C161.509 51.3154 161.263 51.9482 160.771 52.4463C160.284 52.9385 159.66 53.1846 158.898 53.1846C158.137 53.1846 157.507 52.9414 157.009 52.4551C156.511 51.9629 156.262 51.3096 156.262 50.4951V49.8623ZM157.475 50.5479C157.475 51.0107 157.604 51.3916 157.861 51.6904C158.119 51.9834 158.465 52.1299 158.898 52.1299C159.32 52.1299 159.657 51.9863 159.909 51.6992C160.161 51.4062 160.287 51.0107 160.287 50.5127V49.8623C160.287 49.3994 160.158 49.0215 159.9 48.7285C159.648 48.4355 159.309 48.2891 158.881 48.2891C158.465 48.2891 158.125 48.4355 157.861 48.7285C157.604 49.0156 157.475 49.4053 157.475 49.8975V50.5479ZM153.036 52.0332L152.113 51.4531L158.362 41.4512L159.285 42.0312L153.036 52.0332Z" fill="#FA5C32"/>
</svg>
