<svg width="24" height="24" viewBox="0 0 24 24" fill="none" xmlns="http://www.w3.org/2000/svg">
<path fill-rule="evenodd" clip-rule="evenodd" d="M22 5C22 5.01062 21.9995 5.04773 21.961 5.12598C21.919 5.21155 21.8303 5.34717 21.6534 5.52148C21.2882 5.88123 20.6572 6.29724 19.7161 6.68933C17.8425 7.46997 15.1157 8 12 8C8.88434 8 6.15747 7.46997 4.28394 6.68933C3.3428 6.29724 2.71176 5.88123 2.34659 5.52148C2.16968 5.34717 2.08099 5.21155 2.039 5.12598C2.00052 5.04773 2 5.01062 2 5C2 4.98938 2.00052 4.95227 2.039 4.87402C2.08099 4.78845 2.16968 4.65283 2.34659 4.47852C2.71176 4.11877 3.3428 3.70276 4.28394 3.31067C6.15747 2.53003 8.88434 2 12 2C15.1157 2 17.8425 2.53003 19.7161 3.31067C20.6572 3.70276 21.2882 4.11877 21.6534 4.47852C21.8303 4.65283 21.919 4.78845 21.961 4.87402C21.9995 4.95227 22 4.98938 22 5ZM22 7.76489C19.8502 9.11218 16.174 10 12 10C7.82605 10 4.14984 9.11218 2 7.76489V10C2 10.0106 2.00052 10.0477 2.039 10.126C2.08099 10.2115 2.16968 10.3472 2.34659 10.5215C2.71176 10.8812 3.3428 11.2972 4.28394 11.6893C6.15747 12.47 8.88434 13 12 13C15.1157 13 17.8425 12.47 19.7161 11.6893C20.6572 11.2972 21.2882 10.8812 21.6534 10.5215C21.8303 10.3472 21.919 10.2115 21.961 10.126C21.9995 10.0477 22 10.0106 22 10V7.76489ZM23.9408 5.5C23.9799 5.33557 24 5.1687 24 5C24 2.23853 18.6274 0 12 0C5.37259 0 0 2.23853 0 5C0 5.1687 0.02005 5.33557 0.0592346 5.5H0V10V19C0 21.7615 5.37259 24 12 24C18.6274 24 24 21.7615 24 19V10V5.5H23.9408ZM22 12.7649C19.8502 14.1122 16.174 15 12 15C7.82605 15 4.14984 14.1122 2 12.7649V19C2 19.0106 2.00052 19.0477 2.039 19.126C2.08099 19.2115 2.16968 19.3472 2.34659 19.5215C2.71176 19.8812 3.3428 20.2972 4.28394 20.6893C6.15747 21.47 8.88434 22 12 22C15.1157 22 17.8425 21.47 19.7161 20.6893C20.6572 20.2972 21.2882 19.8812 21.6534 19.5215C21.8303 19.3472 21.919 19.2115 21.961 19.126C21.9995 19.0477 22 19.0106 22 19V12.7649Z" fill="black"/>
</svg>
