<svg width="16" height="16" viewBox="0 0 16 16" fill="none" xmlns="http://www.w3.org/2000/svg">
<path fill-rule="evenodd" clip-rule="evenodd" d="M6 4C6 3.27136 6.26331 2.79836 6.60181 2.49741C6.95886 2.1801 7.46301 2 8 2C8.53699 2 9.04114 2.1801 9.39819 2.49741C9.73669 2.79836 10 3.27136 10 4V5H6V4ZM4 7V9H6V7H10V9H12V7H13.6035L12.3308 14H3.66919L2.39648 7H4ZM4 5V4C4 2.72864 4.48669 1.70164 5.27319 1.00259C6.04114 0.319901 7.03699 0 8 0C8.96301 0 9.95886 0.319901 10.7268 1.00259C11.5133 1.70164 12 2.72864 12 4V5H13.9672H16L15.6364 7L14 16H2L0.363647 7L0 5H2.03284H4Z" fill="black"/>
</svg>
