<svg width="24" height="24" viewBox="0 0 24 24" fill="none" xmlns="http://www.w3.org/2000/svg">
<path fill-rule="evenodd" clip-rule="evenodd" d="M12 2C13.5684 2 14.937 2.2041 15.9233 2.5C14.937 2.7959 13.5684 3 12 3C10.4316 3 9.06299 2.7959 8.07666 2.5C9.06299 2.2041 10.4316 2 12 2ZM17 4.24951C15.7295 4.7124 13.959 5 12 5C10.041 5 8.27051 4.7124 7 4.24951V7V7.25928L6.87402 7.48584L6.87109 7.4917L6.86035 7.51025L6.81934 7.58447L6.6626 7.87061C6.52686 8.11816 6.33301 8.4751 6.1001 8.90967C5.63428 9.77979 5.01367 10.9585 4.39453 12.1973C3.77344 13.439 3.16016 14.728 2.7041 15.8223C2.47607 16.3701 2.29346 16.8545 2.16943 17.2515C2.03711 17.6738 2 17.9111 2 18C2 18.6055 2.0835 19.0977 2.2832 19.5112C2.47559 19.9097 2.81055 20.3066 3.43848 20.6699C4.75732 21.4336 7.27588 22 12 22C16.7241 22 19.2427 21.4336 20.5615 20.6699C21.1895 20.3066 21.5244 19.9097 21.7168 19.5112C21.9165 19.0977 22 18.6055 22 18C22 17.9111 21.9629 17.6738 21.8306 17.2515C21.7065 16.8545 21.5239 16.3701 21.2959 15.8223C20.8398 14.728 20.2266 13.439 19.6055 12.1973C18.9863 10.9585 18.3657 9.77979 17.8999 8.90967C17.667 8.4751 17.4731 8.11816 17.3374 7.87061L17.1807 7.58447L17.1396 7.51025L17.1289 7.4917L17.126 7.48584L17 7.25928V7V4.24951ZM19 2.5C19 1.11914 15.8662 0 12 0C8.13379 0 5 1.11914 5 2.5V6.74268L4.90771 6.91064C4.77002 7.16309 4.57324 7.5249 4.3374 7.96533C3.86572 8.84521 3.23633 10.0415 2.60547 11.3027C1.97656 12.561 1.33984 13.897 0.858398 15.0527C0.617676 15.6299 0.409668 16.1768 0.260254 16.6548C0.119141 17.1074 0 17.5889 0 18C0 18.7749 0.104004 19.5986 0.482422 20.3813C0.868164 21.1792 1.50195 21.8599 2.43652 22.4009C4.24268 23.4468 7.22412 24 12 24C16.7759 24 19.7573 23.4468 21.5635 22.4009C22.498 21.8599 23.1318 21.1792 23.5176 20.3813C23.896 19.5986 24 18.7749 24 18C24 17.5889 23.8809 17.1074 23.7397 16.6548C23.5903 16.1768 23.3823 15.6299 23.1416 15.0527C22.6602 13.897 22.0234 12.561 21.3945 11.3027C20.7637 10.0415 20.1343 8.84521 19.6626 7.96533C19.4268 7.5249 19.23 7.16309 19.0923 6.91064L19 6.74268V2.5Z" fill="black"/>
<path d="M9.93562 16.9769C9.39612 16.6654 5.73936 17.3965 6.78834 15.2985C7.94227 12.9906 10.9847 13.4102 14.5514 10.0532C16.5917 13.5245 15.8102 17.8162 13.0827 18.6554C10.3552 19.4946 10.4751 17.2884 9.93562 16.9769ZM9.93562 16.9769C9.39612 16.6654 9.72583 19.075 6.15908 19.075M9.93562 16.9769C10.5651 15.7181 12.1176 15.2984 12.4533 14.4592" stroke="#212121" stroke-width="2"/>
</svg>
