<svg width="16" height="14" viewBox="0 0 16 14" fill="none" xmlns="http://www.w3.org/2000/svg">
<path fill-rule="evenodd" clip-rule="evenodd" d="M11 4C11.5522 4 12 3.55229 12 3C12 2.44771 11.5522 2 11 2C10.4478 2 10 2.44771 10 3C10 3.55229 10.4478 4 11 4ZM11 6C12.6569 6 14 4.65686 14 3C14 1.34314 12.6569 0 11 0C9.34314 0 8 1.34314 8 3C8 3.31078 8.04724 3.6105 8.13501 3.89241C7.59106 3.34146 6.83545 3 6 3C4.34314 3 3 4.34314 3 6C3 6.35246 3.06079 6.69072 3.17249 7.00487C3.11548 7.00163 3.05786 7 3 7C1.34314 7 0 8.34314 0 10C0 11.6569 1.34314 13 3 13C3.86353 13 4.64197 12.6351 5.18933 12.0511C5.61523 13.1895 6.71301 14 8 14C9.57996 14 10.8748 12.7786 10.9915 11.2284C11.5232 11.708 12.2275 12 13 12C14.6569 12 16 10.6569 16 9C16 7.34314 14.6569 6 13 6C11.42 6 10.1252 7.22144 10.0085 8.77159C9.52966 8.33969 8.91089 8.05995 8.22839 8.00858C8.70801 7.47681 9 6.77249 9 6C9 5.68922 8.95276 5.3895 8.86499 5.10759C9.40894 5.65854 10.1646 6 11 6ZM6 7C6.55225 7 7 6.55229 7 6C7 5.44771 6.55225 5 6 5C5.44775 5 5 5.44771 5 6C5 6.55229 5.44775 7 6 7ZM14 9C14 9.55229 13.5522 10 13 10C12.4478 10 12 9.55229 12 9C12 8.44771 12.4478 8 13 8C13.5522 8 14 8.44771 14 9ZM8 12C8.55225 12 9 11.5523 9 11C9 10.4477 8.55225 10 8 10C7.44775 10 7 10.4477 7 11C7 11.5523 7.44775 12 8 12ZM4 10C4 10.5523 3.55225 11 3 11C2.44775 11 2 10.5523 2 10C2 9.44771 2.44775 9 3 9C3.55225 9 4 9.44771 4 10Z" fill="black"/>
</svg>
