<svg width="25" height="26" viewBox="0 0 25 26" fill="none" xmlns="http://www.w3.org/2000/svg">
<path fill-rule="evenodd" clip-rule="evenodd" d="M18.4082 0.994861C18.4058 0.738025 18.5024 0.489978 18.6777 0.305896C18.8618 0.119372 19.1079 0.0109741 19.3667 0.000720145C19.6255 -0.00904548 19.8784 0.0807983 20.0757 0.252673C20.271 0.437244 20.3896 0.691638 20.4072 0.963122C20.4131 1.09496 20.3936 1.22679 20.3491 1.35033C20.3047 1.47435 20.2363 1.58763 20.1479 1.68431C19.9648 1.87474 19.7173 1.98754 19.4561 1.99926C19.1948 2.01097 18.939 1.92113 18.7397 1.74779C18.6353 1.65404 18.5513 1.53783 18.4941 1.40795C18.437 1.27806 18.4077 1.13744 18.4082 0.994861ZM17.2275 5.06371C17.7798 5.06371 18.2275 4.61595 18.2275 4.06371C18.2275 3.51146 17.7798 3.06371 17.2275 3.06371C16.6753 3.06371 16.2275 3.51146 16.2275 4.06371C16.2275 4.61595 16.6753 5.06371 17.2275 5.06371ZM17.2275 9.69408C17.7798 9.69408 18.2275 9.24633 18.2275 8.69408C18.2275 8.14183 17.7798 7.69408 17.2275 7.69408C16.6753 7.69408 16.2275 8.14183 16.2275 8.69408C16.2275 9.24633 16.6753 9.69408 17.2275 9.69408ZM15.8193 6.88695C15.7749 7.01244 15.7061 7.12718 15.6172 7.22484C15.4336 7.41527 15.1865 7.52758 14.9253 7.53929C14.6641 7.55101 14.4082 7.46166 14.209 7.28832C14.1045 7.19506 14.0205 7.07933 13.9634 6.94994C13.9062 6.82054 13.877 6.67992 13.8774 6.53783C13.875 6.28148 13.9717 6.03441 14.1465 5.85082C14.3296 5.66332 14.5747 5.55297 14.8335 5.54125C15.0923 5.52953 15.3462 5.61742 15.5449 5.78734C15.7402 5.97093 15.8589 6.22484 15.876 6.49535C15.8828 6.62865 15.8638 6.76195 15.8193 6.88695ZM12.1484 8.6848C12.2373 8.58715 12.3062 8.4724 12.3506 8.34691C12.395 8.22191 12.4141 8.08861 12.4072 7.95531C12.3901 7.6848 12.2715 7.4309 12.0762 7.2473C11.8774 7.07738 11.6235 6.98949 11.3647 7.00121C11.106 7.01293 10.8608 7.12328 10.6777 7.31078C10.5029 7.49437 10.4062 7.74144 10.4087 7.99779C10.4082 8.13988 10.4375 8.28051 10.4946 8.4099C10.5518 8.53929 10.6357 8.65502 10.7402 8.74828C10.9395 8.92162 11.1953 9.01097 11.4565 8.99926C11.7178 8.98754 11.9648 8.87523 12.1484 8.6848ZM15.3506 10.3469C15.3062 10.4724 15.2373 10.5871 15.1484 10.6848C14.9648 10.8752 14.7178 10.9875 14.4565 10.9993C14.1953 11.011 13.9395 10.9216 13.7402 10.7483C13.6357 10.655 13.5518 10.5393 13.4946 10.4099C13.4375 10.2805 13.4082 10.1399 13.4087 9.99779C13.4062 9.74144 13.5029 9.49437 13.6777 9.31078C13.8608 9.12328 14.106 9.01293 14.3647 9.00121C14.6235 8.98949 14.8774 9.07738 15.0762 9.2473C15.2715 9.4309 15.3901 9.6848 15.4072 9.95531C15.4141 10.0886 15.395 10.2219 15.3506 10.3469ZM18.1484 12.6848C18.2373 12.5871 18.3062 12.4724 18.3506 12.3469C18.395 12.2219 18.4141 12.0886 18.4072 11.9553C18.3901 11.6848 18.2715 11.4309 18.0762 11.2473C17.8774 11.0774 17.6235 10.9895 17.3647 11.0012C17.106 11.0129 16.8608 11.1233 16.6777 11.3108C16.5029 11.4944 16.4062 11.7414 16.4087 11.9978C16.4082 12.1399 16.4375 12.2805 16.4946 12.4099C16.5518 12.5393 16.6357 12.655 16.7402 12.7483C16.9395 12.9216 17.1953 13.011 17.4565 12.9993C17.7178 12.9875 17.9648 12.8752 18.1484 12.6848ZM18.9072 5.2473C18.8086 5.33617 18.728 5.44457 18.6714 5.56664C18.6147 5.68822 18.583 5.82054 18.5776 5.95531C18.5718 6.08959 18.5923 6.22338 18.6382 6.34886C18.6841 6.47435 18.7549 6.58861 18.8457 6.68529C19.0283 6.87523 19.2744 6.98754 19.5342 6.99926C19.7939 7.01097 20.0488 6.92162 20.2471 6.74828C20.3511 6.65502 20.4341 6.53929 20.4912 6.4099C20.5479 6.28051 20.5771 6.13988 20.5767 5.99779C20.5762 5.74535 20.4805 5.50267 20.3086 5.32103C20.1274 5.12963 19.8823 5.01537 19.6221 5.0017C19.3623 4.98802 19.1069 5.07543 18.9072 5.2473ZM20.0161 9.79564C19.9717 9.67699 19.9517 9.55052 19.9575 9.42357C19.9639 9.29808 19.9956 9.17455 20.0508 9.06127C20.1055 8.94799 20.1826 8.84691 20.2773 8.7639C20.4697 8.60033 20.7173 8.51537 20.9692 8.5266C21.2217 8.53783 21.4604 8.64379 21.6377 8.82396C21.8052 8.99437 21.8984 9.22435 21.8975 9.46361C21.8989 9.59838 21.8706 9.73119 21.8154 9.85375C21.7603 9.97631 21.6792 10.0857 21.5776 10.1736C21.3853 10.3371 21.1382 10.4221 20.8857 10.4109C20.6333 10.3996 20.395 10.2937 20.2178 10.1135C20.1294 10.0227 20.061 9.91429 20.0161 9.79564ZM13.3921 4.53051C13.5312 4.53148 13.6685 4.50365 13.7969 4.44896C13.9248 4.39427 14.041 4.31371 14.1382 4.21215C14.2256 4.11498 14.2935 4.0017 14.3384 3.87767C14.3828 3.75365 14.4028 3.62181 14.397 3.48998C14.3799 3.21801 14.2612 2.96312 14.0654 2.77855C13.8652 2.60619 13.6084 2.5183 13.3472 2.53197C13.0854 2.54564 12.8394 2.66039 12.6567 2.85277C12.4902 3.03783 12.3975 3.28051 12.3979 3.53246C12.4014 3.67455 12.4321 3.8142 12.4893 3.94359C12.5459 4.07347 12.6279 4.18968 12.7295 4.28636C12.9155 4.44457 13.1504 4.53099 13.3921 4.53051ZM16.0835 1.74877C15.8994 1.91136 15.6655 2.00072 15.4233 2.00072C15.2881 1.99877 15.1548 1.96898 15.0308 1.91283C14.9067 1.85717 14.7949 1.77611 14.7017 1.67504C14.6128 1.57885 14.5439 1.46459 14.4995 1.34008C14.4546 1.21556 14.4351 1.08275 14.4419 0.949939C14.4482 0.817126 14.481 0.687244 14.5381 0.567615C14.5952 0.448474 14.6748 0.342517 14.7729 0.25658C14.9727 0.0778686 15.2319 -0.01344 15.4956 0.00267327C15.7593 0.0182983 16.0063 0.139392 16.1851 0.340564C16.2715 0.435779 16.3389 0.548572 16.3823 0.67113C16.4258 0.793689 16.4453 0.924548 16.4395 1.05492C16.4121 1.32494 16.2847 1.57347 16.0835 1.74877ZM21.4028 4.00023C21.6499 4.00023 21.8887 3.90892 22.0762 3.74242C22.2646 3.56371 22.3828 3.31908 22.4077 3.0559C22.4136 2.92211 22.394 2.78881 22.3496 2.66381C22.3052 2.53832 22.2368 2.42357 22.1484 2.32592C21.9663 2.13158 21.7197 2.01537 21.4585 2.0017C21.1973 1.98754 20.9404 2.07689 20.7402 2.25072C20.6357 2.34594 20.5518 2.46312 20.4946 2.59447C20.4375 2.72582 20.4082 2.86888 20.4087 3.01293C20.4146 3.27123 20.5103 3.51927 20.6782 3.71019C20.874 3.90062 21.1343 4.00463 21.4028 4.00023ZM23.4507 6.00121C23.7109 6.01293 23.9565 6.12572 24.1392 6.31615C24.23 6.41283 24.3003 6.52709 24.3467 6.65258C24.3926 6.77806 24.4136 6.91185 24.4077 7.04564C24.4019 7.17992 24.3696 7.31127 24.313 7.43187C24.2559 7.55248 24.1758 7.6599 24.0776 7.74779C23.8794 7.92113 23.6245 8.01097 23.3647 7.99926C23.105 7.98754 22.8589 7.87474 22.6768 7.68431C22.5049 7.50218 22.4092 7.25902 22.4087 7.0056C22.4082 6.86302 22.4375 6.7224 22.4941 6.59252C22.5513 6.46263 22.6343 6.34642 22.7383 6.25267C22.9365 6.07933 23.1909 5.98949 23.4507 6.00121ZM3.85693 6.59154L4.62256 7.23412L9.46582 11.2981C10.8906 10.6355 12.312 10.6711 13.6201 11.1697C15.0762 11.7248 16.3506 12.8323 17.3931 14.051C18.4521 15.2898 19.1313 16.4944 19.5508 17.4338C19.7607 17.904 19.9072 18.3103 20.0039 18.6247C20.0923 18.9114 20.1582 19.1819 20.1738 19.3601C20.3105 20.9226 20.0376 22.3113 19.1646 23.3523C18.291 24.3933 16.9702 24.9031 15.4082 25.0398C15.0825 25.0681 14.334 25.0051 13.3755 24.762C12.3833 24.5105 11.0972 24.0491 9.69678 23.2229C8.31201 22.406 7.00586 21.3362 6.20996 19.9968C5.49707 18.7961 5.21387 17.4055 5.61084 15.8957L0.766113 11.8303L0 11.1877L0.642578 10.4216L3.21387 7.35765L3.85693 6.59154ZM4.10303 9.40892L2.81738 10.9411L7.41357 14.7976L7.96582 15.261L7.70117 15.9314C7.24219 17.0925 7.39893 18.0823 7.92969 18.9753C8.48682 19.9133 9.47852 20.7722 10.7134 21.5002C11.9326 22.2195 13.0391 22.6135 13.8672 22.8235C14.2817 22.9285 14.624 22.987 14.8721 23.0178C15.0781 23.0427 15.1938 23.0456 15.2266 23.0466C15.2373 23.0466 15.2393 23.0466 15.2339 23.0471C16.4893 22.9372 17.2202 22.5578 17.6323 22.0666C18.0444 21.5754 18.291 20.7898 18.1816 19.5344L18.1777 19.5281L18.1763 19.5217L18.1748 19.5159C18.1646 19.4704 18.1411 19.3708 18.0923 19.2136C18.019 18.9748 17.9014 18.6443 17.7251 18.2497C17.3721 17.4602 16.7905 16.4241 15.873 15.3513C14.939 14.2585 13.9248 13.426 12.9077 13.0388C11.9424 12.6706 10.9424 12.6858 9.86816 13.3503L9.25342 13.7307L8.69971 13.2659L4.10303 9.40892ZM16.1367 17.3147L15.875 17.0344C15.2041 16.3122 14.3159 15.3567 13.3525 14.7908C12.7817 14.4548 12.0972 14.1995 11.3384 14.2468C10.5576 14.2956 9.83887 14.6555 9.20117 15.2932L10.6152 16.7073C10.978 16.3445 11.2593 16.2556 11.4629 16.2429C11.6885 16.2287 11.9731 16.2995 12.3394 16.5149C13.0298 16.9206 13.6987 17.636 14.4023 18.3889L14.6807 18.6858L16.1367 17.3147Z" fill="#212121"/>
</svg>
