<svg width="18" height="17" viewBox="0 0 18 17" fill="none" xmlns="http://www.w3.org/2000/svg">
<rect width="18" height="16.43" fill="black" fill-opacity="0"/>
<rect width="18" height="16.43" fill="black" fill-opacity="0"/>
<rect width="18" height="16.43" fill="black" fill-opacity="0"/>
<path d="M18 8.21C17.9912 7.77139 17.8944 7.339 17.7155 6.93844C17.5366 6.53787 17.2792 6.17727 16.9584 5.87797C16.6377 5.57867 16.2601 5.34675 15.8482 5.19595C15.4362 5.04514 14.9982 4.97851 14.56 5C15.0297 4.18253 15.1658 3.21535 14.94 2.3C14.7648 1.65012 14.3836 1.0746 13.8534 0.659873C13.3233 0.245147 12.6729 0.0135993 12 0C11.3861 0.0053887 10.7847 0.174017 10.2575 0.488581C9.7303 0.803144 9.29629 1.25231 9 1.79C8.70371 1.25231 8.2697 0.803144 7.7425 0.488581C7.2153 0.174017 6.61389 0.0053887 6 0C5.31674 0.00058567 4.65268 0.226165 4.11044 0.641883C3.5682 1.0576 3.17796 1.64032 3 2.3C2.79216 3.22304 2.94986 4.1907 3.44 5C2.53027 5.01666 1.65976 5.37342 1 6C0.692403 6.2815 0.445167 6.62253 0.273274 7.00241C0.101382 7.38229 0.00841198 7.79312 0 8.21C0.00883593 8.64861 0.105571 9.081 0.284479 9.48156C0.463387 9.88213 0.720833 10.2427 1.04158 10.542C1.36233 10.8413 1.73985 11.0732 2.15182 11.2241C2.56379 11.3749 3.00182 11.4415 3.44 11.42C2.96769 12.2402 2.8315 13.2115 3.06 14.13C3.23796 14.7897 3.6282 15.3724 4.17044 15.7881C4.71268 16.2038 5.37674 16.4294 6.06 16.43C6.67389 16.4246 7.2753 16.256 7.8025 15.9414C8.3297 15.6269 8.76371 15.1777 9.06 14.64C9.35629 15.1777 9.7903 15.6269 10.3175 15.9414C10.8447 16.256 11.4461 16.4246 12.06 16.43C12.7433 16.4294 13.4073 16.2038 13.9496 15.7881C14.4918 15.3724 14.882 14.7897 15.06 14.13C15.2885 13.2115 15.1523 12.2402 14.68 11.42C15.5456 11.4334 16.3812 11.103 17.0035 10.5012C17.6259 9.89951 17.9842 9.07554 18 8.21ZM12 2C12.2319 2.01357 12.4536 2.10022 12.6332 2.24753C12.8129 2.39483 12.9413 2.59523 13 2.82C13.19 3.54 12.71 4.71 10.9 5.92C10.6325 5.69562 10.328 5.51965 10 5.4C10.19 3.07 11.07 2 12 2ZM10 8.21C10 8.40778 9.94135 8.60112 9.83147 8.76557C9.72159 8.93002 9.56541 9.05819 9.38268 9.13388C9.19996 9.20957 8.99889 9.22937 8.80491 9.19079C8.61093 9.1522 8.43275 9.05696 8.29289 8.91711C8.15304 8.77725 8.0578 8.59907 8.01921 8.40509C7.98063 8.21111 8.00043 8.01004 8.07612 7.82732C8.15181 7.64459 8.27998 7.48841 8.44443 7.37853C8.60888 7.26865 8.80222 7.21 9 7.21C9.26522 7.21 9.51957 7.31536 9.70711 7.50289C9.89464 7.69043 10 7.94478 10 8.21ZM5 2.82C5.05874 2.59523 5.18713 2.39483 5.36677 2.24753C5.54641 2.10022 5.76808 2.01357 6 2C6.93 2 7.81 3.07 8 5.4C7.67978 5.51867 7.38217 5.69115 7.12 5.91C5.28 4.7 4.79 3.54 5 2.82ZM3.59 9.42C2.42 9.42 2 8.77 2 8.21C2 7.65 2.42 7 3.59 7C4.45154 7.04936 5.29154 7.28838 6.05 7.7C6.01882 7.86826 6.00209 8.03889 6 8.21C6.00209 8.38111 6.01882 8.55174 6.05 8.72C5.29154 9.13162 4.45154 9.37064 3.59 9.42ZM6.05 14.42C5.80938 14.417 5.5764 14.3351 5.38674 14.187C5.19709 14.0389 5.06123 13.8327 5 13.6C4.81 12.88 5.29 11.71 7.1 10.5C7.36895 10.7173 7.67343 10.8864 8 11C7.81 13.35 6.93 14.42 6 14.42H6.05ZM13.05 13.6C12.9883 13.8344 12.851 14.0418 12.6593 14.1901C12.4676 14.3383 12.2323 14.4192 11.99 14.42C11.11 14.42 10.23 13.35 10.07 11.01C10.3902 10.8913 10.6878 10.7188 10.95 10.5C12.72 11.72 13.21 12.88 13 13.6H13.05ZM14.44 9.41C13.5785 9.36032 12.7386 9.12131 11.98 8.71C12.0006 8.54418 12.0073 8.37693 12 8.21C11.9979 8.03889 11.9812 7.86826 11.95 7.7C12.7085 7.28838 13.5485 7.04936 14.41 7C15.58 7 16 7.65 16 8.21C16 8.77 15.58 9.42 14.41 9.42L14.44 9.41Z" fill="black"/>
</svg>
