<svg width="16" height="16" viewBox="0 0 16 16" fill="none" xmlns="http://www.w3.org/2000/svg">
<path fill-rule="evenodd" clip-rule="evenodd" d="M8 2.30621L5.71277 3.61943V6.22672L8 7.53993L10.2871 6.22672V3.61943L8 2.30621ZM12.2871 2.46153L8 0L3.71277 2.46153V6.48367L0 8.61537V13.5385L4.28723 16L8 13.8682L11.7129 16L16 13.5385V8.61537L12.2871 6.48354V2.46153ZM4.28723 8.46005L2 9.77327V12.3806L4.28723 13.6938L6.57434 12.3806V9.77327L4.28723 8.46005ZM9.42566 9.77327L11.7129 8.46005L14 9.77327V12.3806L11.7129 13.6938L9.42566 12.3806V9.77327Z" fill="black"/>
</svg>
