<svg width="24" height="27" viewBox="0 0 24 27" fill="none" xmlns="http://www.w3.org/2000/svg">
<path fill-rule="evenodd" clip-rule="evenodd" d="M20 0.708008L20.6323 1.22461C22.707 2.91846 24 4.80811 24 6.66553C24 7.62207 23.647 8.50732 22.8823 9.13184C22.145 9.73438 21.1406 9.99902 20 9.99902C18.8594 9.99902 17.855 9.73438 17.1177 9.13184C16.353 8.50732 16 7.62207 16 6.66553C16 4.80811 17.293 2.91846 19.3677 1.22461L20 0.708008ZM20 3.32275C18.5498 4.66553 18 5.83447 18 6.66553C18 7.10938 18.147 7.39062 18.3823 7.58301C18.645 7.79736 19.1406 7.99902 20 7.99902C20.8594 7.99902 21.355 7.79736 21.6177 7.58301C21.853 7.39062 22 7.10938 22 6.66553C22 5.83447 21.4502 4.66553 20 3.32275ZM3.85693 7.5918L4.62256 8.23438L9.46582 12.2983C10.8906 11.6357 12.312 11.6714 13.6201 12.1699C15.0762 12.7251 16.3506 13.8325 17.3931 15.0513C18.4521 16.29 19.1313 17.4946 19.5508 18.4341C19.7607 18.9043 19.9072 19.3105 20.0039 19.625C20.0923 19.9116 20.1582 20.1821 20.1738 20.3604C20.3105 21.9229 20.0376 23.3115 19.1646 24.3525C18.291 25.3936 16.9702 25.9033 15.4082 26.04C15.0825 26.0684 14.334 26.0054 13.3755 25.7622C12.3833 25.5107 11.0972 25.0493 9.69678 24.2231C8.31201 23.4062 7.00586 22.3364 6.20996 20.9971C5.49707 19.7964 5.21387 18.4058 5.61084 16.896L0.766113 12.8306L0 12.188L0.642578 11.4219L3.21387 8.35791L3.85693 7.5918ZM4.10303 10.4092L2.81738 11.9414L7.41357 15.7979L7.96582 16.2612L7.70117 16.9316C7.24219 18.0928 7.39893 19.0825 7.92969 19.9756C8.48682 20.9136 9.47852 21.7725 10.7134 22.5005C11.9326 23.2197 13.0391 23.6138 13.8672 23.8237C14.2817 23.9287 14.624 23.9873 14.8721 24.0181C15.0781 24.043 15.1938 24.0459 15.2266 24.0469C15.2373 24.0469 15.2393 24.0469 15.2339 24.0474C16.4893 23.9375 17.2202 23.5581 17.6323 23.0669C18.0444 22.5757 18.291 21.79 18.1816 20.5347L18.1777 20.5283L18.1763 20.522L18.1748 20.5161C18.1646 20.4707 18.1411 20.3711 18.0923 20.2139C18.019 19.9751 17.9014 19.6445 17.7251 19.25C17.3721 18.4604 16.7905 17.4243 15.873 16.3516C14.939 15.2588 13.9248 14.4263 12.9077 14.0391C11.9424 13.6709 10.9424 13.686 9.86816 14.3506L9.25342 14.731L8.69971 14.2661L4.10303 10.4092ZM16.1367 18.3149L15.875 18.0347C15.2041 17.3125 14.3159 16.3569 13.3525 15.791C12.7817 15.4551 12.0972 15.1997 11.3384 15.2471C10.5576 15.2959 9.83887 15.6558 9.20117 16.2935L10.6152 17.7075C10.978 17.3447 11.2593 17.2559 11.4629 17.2432C11.6885 17.229 11.9731 17.2998 12.3394 17.5151C13.0298 17.9209 13.6987 18.6362 14.4023 19.3892L14.6807 19.686L16.1367 18.3149Z" fill="#212121"/>
</svg>
