<svg width="25" height="26" viewBox="0 0 25 26" fill="none" xmlns="http://www.w3.org/2000/svg">
<path fill-rule="evenodd" clip-rule="evenodd" d="M21.6325 1.2251L21.0002 0.708496L20.3678 1.2251C18.2931 2.91895 17.0002 4.80859 17.0002 6.66602C17.0002 7.62256 17.3532 8.50781 18.1178 9.13232C18.8551 9.73486 19.8595 9.99951 21.0002 9.99951C22.1408 9.99951 23.1452 9.73486 23.8825 9.13232C24.6471 8.50781 25.0002 7.62256 25.0002 6.66602C25.0002 4.80859 23.7072 2.91895 21.6325 1.2251ZM19.0002 6.66602C19.0002 5.83496 19.55 4.66602 21.0002 3.32324C22.4503 4.66602 23.0002 5.83496 23.0002 6.66602C23.0002 7.10986 22.8532 7.39111 22.6178 7.5835C22.3551 7.79785 21.8595 7.99951 21.0002 7.99951C20.1408 7.99951 19.6452 7.79785 19.3825 7.5835C19.1471 7.39111 19.0002 7.10986 19.0002 6.66602ZM22.2628 21.9795C23.1125 21.3179 23.1149 20.3071 22.797 19.605C22.4889 18.9263 21.8131 18.3232 20.9352 18.2153C18.8244 17.9561 17.2858 16.7456 15.6769 15.2642C14.5578 14.2339 14.1217 13.0732 13.7087 11.8345L13.6276 11.5903C13.2668 10.4937 12.8327 9.17529 11.6891 8.26855C11.0622 7.5752 10.0011 7.02979 8.83853 6.76465C7.86881 6.54346 6.74674 6.49658 5.60416 6.76416C5.12515 5.625 4.54215 4.75488 3.86002 4.13525C2.98502 3.33984 1.99429 3 1.00015 3V5C1.50553 5 2.0148 5.16016 2.5148 5.61475C2.92349 5.98633 3.35074 6.57861 3.74137 7.49463C2.43521 8.2334 1.72379 9.21338 1.3566 10.1069C1.14127 10.6318 1.05191 11.1074 1.01676 11.4575C0.999178 11.6328 0.994783 11.7788 0.995271 11.8867L0.996248 11.9316C0.272127 16.1377 3.00504 20.6816 7.03824 23.1445C11.1989 25.6851 16.9142 26.1465 22.2628 21.9795ZM8.39371 8.71436C8.73697 8.79248 9.04068 8.89746 9.29996 9.01318C7.7399 10.1226 5.89859 11.1392 3.13053 11.0752C3.15201 11.0078 3.1774 10.938 3.2067 10.8667C3.4523 10.2695 4.00797 9.47363 5.37125 8.92822C6.40299 8.51562 7.47769 8.50537 8.39371 8.71436ZM8.08023 21.4375C4.80387 19.437 2.7814 16.0508 2.8859 13.0684C6.68228 13.2134 9.10416 11.6523 10.9054 10.3198C11.2599 10.8154 11.4836 11.4863 11.8004 12.4355L11.8024 12.4409L11.8112 12.4678C12.2379 13.7466 12.8019 15.3359 14.3224 16.7358C15.9577 18.2412 17.9025 19.8574 20.6911 20.2002C20.735 20.2056 20.7892 20.2261 20.8468 20.2705C20.9059 20.3169 20.9508 20.377 20.9753 20.4312L20.9806 20.4434L20.86 20.5356C18.7301 20.7637 17.0563 20.8354 15.5822 20.4136C14.1086 19.9917 12.7296 19.041 11.3322 16.9448L9.66812 18.0542C11.2707 20.4585 13.0109 21.7578 15.0319 22.3364C15.5905 22.4966 16.1628 22.5981 16.7467 22.6562C13.5631 23.5854 10.5133 22.9229 8.08023 21.4375Z" fill="#212121"/>
</svg>
