<svg width="16" height="16" viewBox="0 0 16 16" fill="none" xmlns="http://www.w3.org/2000/svg">
<path fill-rule="evenodd" clip-rule="evenodd" d="M11 5C11 5.90714 10.6057 7.13623 9.90247 8.13097C9.17383 9.16164 8.4502 9.5 8 9.5C7.5498 9.5 6.82617 9.16164 6.09753 8.13097C5.39429 7.13623 5 5.90714 5 5C5 3.34314 6.34314 2 8 2C9.65686 2 11 3.34314 11 5ZM10.5657 10.3908C12.0239 9.073 13 6.82347 13 5C13 2.23857 10.7615 0 8 0C5.23853 0 3 2.23857 3 5C3 6.82582 3.97864 9.07883 5.43994 10.3959C2.8252 11.2338 1.12854 13.2059 0.210693 14.3861L1.78931 15.6139C2.93372 14.1426 4.90479 12 8 12C11.1124 12 13.2482 14.1751 14.168 15.5547L15.832 14.4453C14.9974 13.1933 13.2173 11.2224 10.5657 10.3908Z" fill="black"/>
</svg>
