<svg width="61" height="40" viewBox="0 0 61 40" fill="none" xmlns="http://www.w3.org/2000/svg">
<path d="M60.4199 26.8408C60.4199 28.6377 60.0456 30.3223 59.2969 31.8945C58.623 33.4668 57.6872 34.8519 56.4893 36.0498C55.3662 37.1729 54.0186 38.0713 52.4463 38.7451C50.874 39.4189 49.1895 39.7559 47.3926 39.7559C45.5957 39.7559 43.9111 39.4189 42.3389 38.7451C40.7666 38.0713 39.3815 37.1729 38.1836 36.0498C37.0605 34.8519 36.1621 33.4668 35.4883 31.8945C34.8145 30.3223 34.4775 28.6377 34.4775 26.8408C34.4775 23.846 34.9642 21.0758 35.9375 18.5303C36.9108 15.9098 38.221 13.4766 39.8682 11.2305C41.5902 8.98438 43.5368 6.92546 45.708 5.05371C47.9541 3.18197 50.2751 1.4974 52.6709 0L56.8262 3.59375C55.4036 4.86654 54.0934 6.47624 52.8955 8.42285C51.6976 10.3695 50.9115 12.3161 50.5371 14.2627C53.3822 14.9365 55.7406 16.4714 57.6123 18.8672C59.4841 21.1882 60.4199 23.846 60.4199 26.8408ZM25.9424 26.8408C25.9424 28.6377 25.568 30.3223 24.8193 31.8945C24.1455 33.4668 23.2096 34.8519 22.0117 36.0498C20.8887 37.1729 19.5036 38.0713 17.8564 38.7451C16.2842 39.4189 14.5996 39.7559 12.8027 39.7559C11.0059 39.7559 9.32129 39.4189 7.74902 38.7451C6.25163 38.0713 4.90397 37.1729 3.70605 36.0498C2.58301 34.8519 1.68457 33.4668 1.01074 31.8945C0.336914 30.3223 0 28.6377 0 26.8408C0 23.846 0.486654 21.0758 1.45996 18.5303C2.43327 15.9098 3.74349 13.4766 5.39062 11.2305C7.11263 8.98438 9.05925 6.92546 11.2305 5.05371C13.4766 3.18197 15.7975 1.4974 18.1934 0L22.2363 3.59375C20.8887 4.86654 19.6159 6.47624 18.418 8.42285C17.2201 10.3695 16.4339 12.3161 16.0596 14.2627C18.9046 14.9365 21.263 16.4714 23.1348 18.8672C25.0065 21.1882 25.9424 23.846 25.9424 26.8408Z" fill="#D6D2D0"/>
</svg>
