<svg width="16" height="16" viewBox="0 0 16 16" fill="none" xmlns="http://www.w3.org/2000/svg">
<path fill-rule="evenodd" clip-rule="evenodd" d="M11 6.5C11 8.98528 8.98523 11 6.5 11C4.01477 11 2 8.98528 2 6.5C2 4.01472 4.01477 2 6.5 2C8.98523 2 11 4.01472 11 6.5ZM10.3347 11.7489C9.25977 12.5356 7.93408 13 6.5 13C2.91016 13 0 10.0898 0 6.5C0 2.91016 2.91016 0 6.5 0C10.0898 0 13 2.91016 13 6.5C13 7.93408 12.5355 9.2597 11.7489 10.3347L15.7072 14.2929L14.2928 15.7071L10.3347 11.7489Z" fill="black"/>
</svg>
