<svg width="24" height="24" viewBox="0 0 24 24" fill="none" xmlns="http://www.w3.org/2000/svg">
<path fill-rule="evenodd" clip-rule="evenodd" d="M22 4.5C22 5.88062 20.8807 7 19.5 7C18.1193 7 17 5.88062 17 4.5C17 3.11938 18.1193 2 19.5 2C20.8807 2 22 3.11938 22 4.5ZM24 4.5C24 6.98535 21.9853 9 19.5 9C19.0405 9 18.5971 8.93115 18.1795 8.80322L15.3078 12.0339L17.9114 15.2883C18.4054 15.1018 18.9408 15 19.5 15C21.9853 15 24 17.0146 24 19.5C24 21.9854 21.9853 24 19.5 24C17.0147 24 15 21.9854 15 19.5C15 18.2981 15.4711 17.2063 16.2388 16.3992L13.5194 13H8.74395C8.12621 14.7478 6.45934 16 4.5 16C2.01472 16 0 13.9854 0 11.5C0 9.01465 2.01472 7 4.5 7C6.81628 7 8.72382 8.75 8.97254 11H13.5509L16.4159 7.77686C15.5442 6.9563 15 5.79175 15 4.5C15 2.01465 17.0147 0 19.5 0C21.9853 0 24 2.01465 24 4.5ZM19.5 22C20.8807 22 22 20.8806 22 19.5C22 18.1194 20.8807 17 19.5 17C18.1193 17 17 18.1194 17 19.5C17 20.8806 18.1193 22 19.5 22ZM7 11.5C7 12.8806 5.88071 14 4.5 14C3.11929 14 2 12.8806 2 11.5C2 10.1194 3.11929 9 4.5 9C5.88071 9 7 10.1194 7 11.5Z" fill="black"/>
</svg>
